<svg xmlns="http://www.w3.org/2000/svg" viewBox="0 0 112 96" fill="none">
<defs><linearGradient id="base" x2="0" y2="1"><stop stop-color="#d9cfb7"/><stop offset="1" stop-color="#998e76"/></linearGradient><linearGradient id="top" x2=".8" y2="1"><stop stop-color="#fffdf3"/><stop offset="1" stop-color="#e5ddc9"/></linearGradient></defs>
<rect x="4" y="4" width="104" height="88" rx="23" fill="#f8f3e6"/>
<rect x="8" y="8" width="96" height="80" rx="19" fill="url(#base)"/>
<path d="M25 11h62a12 12 0 0 1 12 12v38a13 13 0 0 1-13 13H26a13 13 0 0 1-13-13V23a12 12 0 0 1 12-12Z" fill="url(#top)" stroke="#fffdf5" stroke-width="2"/>
<path d="m39 32-12 10 12 10m34-20 12 10-12 10M62 26 50 58" stroke="#394333" stroke-width="5" stroke-linecap="round" stroke-linejoin="round"/>
</svg>
